<svg width="105" height="105" viewBox="0 0 105 105" fill="none" xmlns="http://www.w3.org/2000/svg">
<circle cx="52.5" cy="52.5" r="52.5" fill="white"/>
<path d="M74.8296 41.1814C73.9469 41.1814 73.2327 40.4672 73.2327 39.5845C73.2327 38.7018 73.9469 37.9876 74.8296 37.9876H75.4347C76.3173 37.9876 77.0315 38.7018 77.0315 39.5845C77.0315 40.4672 76.3173 41.1814 75.4347 41.1814H74.8296ZM67.4191 65.3685V78.5396C67.4191 80.464 66.63 82.2168 65.3607 83.4862C64.085 84.7618 62.3291 85.5509 60.4047 85.5509H45.0036C44.121 85.5509 43.4067 84.8366 43.4067 83.954C43.4067 83.0713 44.121 82.3571 45.0036 82.3571H60.4047C61.4558 82.3571 62.4133 81.9267 63.1057 81.2374C63.795 80.545 64.2254 79.5907 64.2254 78.5365V65.3654H51.4503L45.3341 72.7665C44.7727 73.4434 43.7684 73.54 43.0885 72.9786C42.708 72.6636 42.5115 72.2083 42.5115 71.7498L42.5084 65.2281C40.8304 64.9162 39.3208 64.0928 38.1575 62.9263C36.6542 61.4293 35.7216 59.3552 35.7216 57.0753V46.2716C35.7216 43.9979 36.6542 41.9301 38.1544 40.4237L38.1638 40.4143C39.6671 38.9141 41.7349 37.9847 44.0055 37.9847H64.2252V26.0113C64.2252 24.9602 63.7947 24.0027 63.1055 23.3103C62.4131 22.621 61.4587 22.1906 60.4045 22.1906H55.1492C54.8841 24.0557 54.0108 25.7275 52.7383 27C51.1976 28.5469 49.0642 29.5044 46.7063 29.5044C44.3516 29.5044 42.2151 28.5469 40.6713 27.0031C39.3987 25.7305 38.5254 24.0557 38.2604 22.1875H33.0113C31.9602 22.1875 31.0027 22.6179 30.3103 23.3072C29.621 23.9996 29.1906 24.954 29.1906 26.0081V78.5335C29.1906 79.5846 29.6211 80.5421 30.3103 81.2345C31.0027 81.9238 31.9571 82.3541 33.0113 82.3541H34.973C35.8557 82.3541 36.5699 83.0684 36.5699 83.951C36.5699 84.8337 35.8557 85.5479 34.973 85.5479H33.0113C31.0869 85.5479 29.334 84.7588 28.0647 83.4894C26.789 82.2138 26 80.461 26 78.5366V26.0113C26 24.0869 26.7891 22.334 28.0585 21.0647C29.3341 19.789 31.0869 19 33.0113 19H60.4073C62.3317 19 64.0877 19.7891 65.357 21.0585C66.6327 22.3341 67.4217 24.0869 67.4217 26.0113V37.9847H70.1164C70.9991 37.9847 71.7133 38.6989 71.7133 39.5815C71.7133 40.4642 70.9991 41.1784 70.1164 41.1784H44.0114C42.6111 41.1784 41.3354 41.7523 40.4154 42.6693C39.489 43.5924 38.9183 44.8681 38.9183 46.2716V57.0753C38.9183 58.4757 39.4922 59.7513 40.4154 60.6745C41.3323 61.6008 42.608 62.1747 44.0114 62.1747H44.1113C44.9939 62.1747 45.7081 62.8889 45.7081 63.7716V67.3178L49.429 62.8141C49.7222 62.4273 50.1838 62.1747 50.7047 62.1747H78.5223C79.9258 62.1747 81.1984 61.6008 82.1184 60.6839C83.0416 59.7607 83.6155 58.4819 83.6155 57.0784V46.2747C83.6155 45.0957 83.2163 44.0104 82.5458 43.1527C81.8596 42.27 80.8834 41.615 79.7668 41.3344C78.9153 41.1223 78.3944 40.2552 78.6066 39.4006C78.8187 38.5492 79.6857 38.0283 80.5403 38.2404C82.3524 38.6989 83.9337 39.7593 85.0533 41.194C86.1543 42.6037 86.8093 44.3691 86.8093 46.2716V57.0753C86.8093 59.3521 85.8767 61.423 84.3765 62.9232C82.8732 64.4265 80.7991 65.3653 78.5223 65.3653H67.4224L67.4191 65.3685ZM41.5073 22.2001C41.7381 23.1857 42.2403 24.0651 42.9295 24.7544C43.8964 25.7213 45.2313 26.3201 46.7065 26.3201C48.1818 26.3201 49.5198 25.7213 50.4836 24.7544C51.176 24.0683 51.6781 23.1857 51.9089 22.2001H41.5073ZM40.291 82.3609C41.1737 82.3609 41.8879 83.0752 41.8879 83.9578C41.8879 84.8405 41.1736 85.5547 40.291 85.5547H39.6859C38.8033 85.5547 38.0891 84.8405 38.0891 83.9578C38.0891 83.0752 38.8033 82.3609 39.6859 82.3609H40.291Z" fill="black"/>
<path d="M59.7784 52.6364C59.7784 53.5881 59.598 54.3977 59.2372 55.0653C58.8793 55.733 58.3906 56.2429 57.7713 56.5952C57.1548 56.9446 56.4616 57.1193 55.6918 57.1193C54.9162 57.1193 54.2202 56.9432 53.6037 56.5909C52.9872 56.2386 52.5 55.7287 52.142 55.0611C51.7841 54.3935 51.6051 53.5852 51.6051 52.6364C51.6051 51.6847 51.7841 50.875 52.142 50.2074C52.5 49.5398 52.9872 49.0312 53.6037 48.6818C54.2202 48.3295 54.9162 48.1534 55.6918 48.1534C56.4616 48.1534 57.1548 48.3295 57.7713 48.6818C58.3906 49.0312 58.8793 49.5398 59.2372 50.2074C59.598 50.875 59.7784 51.6847 59.7784 52.6364ZM57.9077 52.6364C57.9077 52.0199 57.8153 51.5 57.6307 51.0767C57.4489 50.6534 57.1918 50.3324 56.8594 50.1136C56.527 49.8949 56.1378 49.7855 55.6918 49.7855C55.2457 49.7855 54.8565 49.8949 54.5241 50.1136C54.1918 50.3324 53.9332 50.6534 53.7486 51.0767C53.5668 51.5 53.4759 52.0199 53.4759 52.6364C53.4759 53.2528 53.5668 53.7727 53.7486 54.196C53.9332 54.6193 54.1918 54.9403 54.5241 55.1591C54.8565 55.3778 55.2457 55.4872 55.6918 55.4872C56.1378 55.4872 56.527 55.3778 56.8594 55.1591C57.1918 54.9403 57.4489 54.6193 57.6307 54.196C57.8153 53.7727 57.9077 53.2528 57.9077 52.6364ZM60.4144 49.794V48.2727H67.582V49.794H64.9102V57H63.0863V49.794H60.4144ZM68.7624 57V48.2727H72.2056C72.8675 48.2727 73.4315 48.3991 73.8974 48.652C74.3633 48.902 74.7184 49.25 74.9627 49.696C75.2099 50.1392 75.3335 50.6506 75.3335 51.2301C75.3335 51.8097 75.2085 52.321 74.9585 52.7642C74.7085 53.2074 74.3462 53.5526 73.8718 53.7997C73.4002 54.0469 72.8292 54.1705 72.1587 54.1705H69.9641V52.6918H71.8604C72.2156 52.6918 72.5082 52.6307 72.7383 52.5085C72.9712 52.3835 73.1445 52.2116 73.2582 51.9929C73.3746 51.7713 73.4329 51.517 73.4329 51.2301C73.4329 50.9403 73.3746 50.6875 73.2582 50.4716C73.1445 50.2528 72.9712 50.0838 72.7383 49.9645C72.5053 49.8423 72.2099 49.7812 71.8519 49.7812H70.6076V57H68.7624Z" fill="black"/>
</svg>
