<svg width="30" height="30" viewBox="0 0 30 30" fill="none" xmlns="http://www.w3.org/2000/svg">
<path fill-rule="evenodd" clip-rule="evenodd" d="M15.0026 3.66927C13.0204 3.66891 11.0727 4.18846 9.35397 5.17608C7.63526 6.16369 6.20564 7.58482 5.20781 9.29762C4.20998 11.0104 3.67884 12.955 3.6674 14.9372C3.65596 16.9194 4.16462 18.87 5.14262 20.5942C5.80365 19.7351 6.65339 19.0395 7.62616 18.5612C8.59892 18.083 9.66864 17.8348 10.7526 17.8359H19.2526C20.3366 17.8348 21.4063 18.083 22.3791 18.5612C23.3518 19.0395 24.2016 19.7351 24.8626 20.5942C25.8406 18.87 26.3493 16.9194 26.3378 14.9372C26.3264 12.955 25.7953 11.0104 24.7974 9.29762C23.7996 7.58482 22.37 6.16369 20.6513 5.17608C18.9326 4.18846 16.9849 3.66891 15.0026 3.66927ZM26.2552 23.6103C26.4328 23.3789 26.6028 23.1418 26.7652 22.8991C28.3358 20.5654 29.173 17.8156 29.1693 15.0026C29.1693 7.17836 22.8269 0.835938 15.0026 0.835938C7.17837 0.835938 0.835952 7.17836 0.835952 15.0026C0.831488 18.1147 1.85601 21.1409 3.75004 23.6103L3.74295 23.6358L4.24587 24.2209C5.57454 25.7742 7.22425 27.0211 9.08128 27.8753C10.9383 28.7296 12.9585 29.1711 15.0026 29.1693C15.3086 29.1693 15.6127 29.1598 15.915 29.1409C18.4712 28.9797 20.9352 28.1251 23.0422 26.6689C24.0499 25.9737 24.9632 25.1508 25.7594 24.2209L26.2623 23.6358L26.2552 23.6103ZM15.0026 6.5026C13.8754 6.5026 12.7944 6.95037 11.9974 7.7474C11.2004 8.54443 10.7526 9.62543 10.7526 10.7526C10.7526 11.8798 11.2004 12.9608 11.9974 13.7578C12.7944 14.5548 13.8754 15.0026 15.0026 15.0026C16.1298 15.0026 17.2108 14.5548 18.0078 13.7578C18.8049 12.9608 19.2526 11.8798 19.2526 10.7526C19.2526 9.62543 18.8049 8.54443 18.0078 7.7474C17.2108 6.95037 16.1298 6.5026 15.0026 6.5026Z" fill="white"/>
</svg>
