<svg width="7" height="8" viewBox="0 0 7 8" fill="none" xmlns="http://www.w3.org/2000/svg">
<path d="M1.49989 7.42076C1.47934 7.41679 1.4281 7.39243 1.38644 7.36665C1.25189 7.2831 1.21902 7.15733 1.21737 6.71969C1.21682 6.56559 1.21572 6.56106 1.17928 6.53642C1.15873 6.52254 1.12036 6.51263 1.09378 6.51433C1.00418 6.52056 0.917036 6.44918 0.890182 6.3472C0.855929 6.21718 0.83894 5.35129 0.823869 2.9818C0.820307 2.4031 0.814004 1.92606 0.810168 1.92215C0.806331 1.91818 0.772626 1.93064 0.73536 1.94962C0.698093 1.96888 0.616435 2.00543 0.553685 2.03064L0.439692 2.07681L0.44435 2.3629C0.449009 2.63851 0.447913 2.65154 0.415852 2.71528C0.330079 2.88665 0.117715 2.88608 0.0330435 2.71443C0.00783304 2.66316 0.00454512 2.62265 0.00125719 2.32154C-0.00203109 2.00061 -0.000934997 1.9822 0.0305778 1.90175C0.0908632 1.74766 0.125119 1.72669 0.694259 1.49726L0.810168 1.45052L0.811538 1.23949C0.813182 0.986251 0.83072 0.889661 0.902789 0.733581C0.970473 0.587703 1.08227 0.457402 1.22476 0.358826C1.43685 0.212383 1.49742 0.204732 2.68451 0.180658C3.25092 0.169044 3.63126 0.169044 4.02424 0.180091C4.32594 0.188872 4.71094 0.195954 4.87944 0.195954C5.33678 0.19652 5.52668 0.229661 5.73793 0.34608C5.85933 0.412929 6.00072 0.561644 6.06456 0.689393C6.14239 0.845466 6.15335 0.915436 6.1443 1.19784C6.13992 1.33268 6.14047 1.44995 6.14567 1.45816C6.15088 1.46665 6.19363 1.48478 6.24076 1.49866C6.28789 1.51254 6.42655 1.55673 6.54931 1.59667C6.81155 1.6825 6.87375 1.72669 6.93705 1.87257C7.01542 2.05329 7.02227 2.53171 6.94828 2.68154C6.87402 2.83195 6.71427 2.87302 6.60658 2.76907C6.53424 2.69938 6.52656 2.66596 6.51889 2.3759L6.51176 2.1034L6.35502 2.04959C6.2687 2.01984 6.18732 1.9952 6.17417 1.99435C6.1517 1.99293 6.14978 2.13796 6.14457 4.12562C6.13854 6.42143 6.14101 6.34834 6.06456 6.42085C5.91741 6.56022 5.87658 6.58883 5.80999 6.59789L5.74231 6.60724L5.74724 6.83243C5.75135 7.00975 5.74724 7.07547 5.72888 7.1409C5.70148 7.23835 5.6264 7.33239 5.55953 7.35363C5.5346 7.36156 5.33785 7.37204 5.12219 7.37686L4.73034 7.38592L4.6591 7.35052C4.61991 7.33097 4.57059 7.29613 4.54949 7.2729C4.47632 7.19217 4.46235 7.13297 4.4555 6.87323L4.4492 6.63387H2.51404V6.88795C2.51404 7.16441 2.50363 7.22815 2.44773 7.29698C2.38415 7.37516 2.33976 7.38932 2.12219 7.4015C1.79473 7.41991 1.54016 7.42756 1.50015 7.41991L1.49989 7.42076ZM2.03999 6.92137C2.05259 6.91712 2.0578 6.87407 2.0578 6.77493V6.63443H1.68732V6.77918C1.68732 6.85878 1.69006 6.92704 1.69363 6.93043C1.70102 6.93808 2.01478 6.92987 2.04026 6.92109L2.03999 6.92137ZM5.33044 6.83328C5.32578 6.79277 5.32195 6.72791 5.32167 6.6891V6.61885L4.91557 6.62678L4.9205 6.75935C4.92324 6.83214 4.92762 6.89531 4.92982 6.89928C4.93228 6.90324 5.02518 6.90664 5.13643 6.90664H5.33893L5.33044 6.83328ZM3.60412 6.17045H5.69929L5.69518 5.1765C5.69299 4.6298 5.6886 4.18 5.68559 4.17688C5.68257 4.17377 5.63161 4.20521 5.57214 4.24657C5.18823 4.51425 4.68706 4.70262 4.13133 4.78759C3.888 4.82498 3.23909 4.8247 2.97687 4.78702C2.47047 4.71479 1.97997 4.57996 1.49741 4.38111C1.39766 4.34004 1.30861 4.30633 1.29984 4.30633C1.28806 4.30633 1.28532 4.46921 1.28888 4.90684C1.29162 5.23712 1.29244 5.66317 1.29052 5.85352C1.28861 6.04387 1.28696 6.20362 1.28724 6.20816C1.28751 6.21269 1.33738 6.20617 1.39821 6.19343C1.49549 6.17303 1.7591 6.17048 3.6038 6.17048L3.60412 6.17045ZM2.67323 5.75009C2.55266 5.72432 2.48525 5.65605 2.48525 5.55946C2.48525 5.50649 2.54636 5.42944 2.60965 5.40197C2.68528 5.36939 2.98753 5.35268 3.55064 5.34985C4.10089 5.34701 4.2431 5.35806 4.3634 5.41245C4.50534 5.47646 4.48123 5.66313 4.32531 5.70562C4.29709 5.71327 4.24503 5.72772 4.20968 5.73735C4.13131 5.75888 2.76669 5.77021 2.67297 5.75038L2.67323 5.75009ZM1.75525 5.70336C1.69387 5.66653 1.65852 5.60025 1.65852 5.52179C1.65852 5.34447 1.87993 5.25637 1.99612 5.38752C2.0216 5.41641 2.04654 5.45663 2.05174 5.4776C2.07421 5.56965 2.0205 5.67871 1.93473 5.71582C1.86897 5.74415 1.81717 5.74075 1.75525 5.70364L1.75525 5.70336ZM4.99232 5.68778C4.86462 5.59969 4.86737 5.41329 4.99698 5.3439C5.13782 5.26855 5.3047 5.38016 5.28881 5.53906C5.27374 5.69004 5.11262 5.77105 4.99232 5.68778ZM4.08886 4.30123C4.56155 4.22758 4.9449 4.08397 5.36994 3.82167C5.47872 3.75453 5.59573 3.68655 5.62998 3.67097L5.69246 3.64236V1.7683L5.53928 1.77793C5.22525 1.79776 4.46535 1.81589 3.21254 1.83288C2.0134 1.84931 1.38374 1.84591 1.30615 1.82297L1.27409 1.81334V2.12067C1.27409 2.28978 1.27847 2.73138 1.28341 3.10187L1.29272 3.77546L1.46097 3.84883C2.05752 4.10914 2.63297 4.26323 3.2479 4.32697C3.37395 4.34 3.9527 4.32216 4.08886 4.30091L4.08886 4.30123ZM3.3191 1.39695C4.29103 1.39695 5.22985 1.40233 5.4055 1.40884L5.72447 1.42074L5.71789 1.21708C5.71241 1.0491 5.70583 1.00038 5.67953 0.938344C5.61677 0.789631 5.47949 0.695587 5.28603 0.668394C5.16655 0.651681 3.09244 0.643751 2.63513 0.658197C2.50196 0.662446 2.23259 0.670094 2.03639 0.675193C1.66646 0.685107 1.57521 0.695021 1.49519 0.734111C1.41792 0.772068 1.33983 0.849967 1.29488 0.934374C1.25542 1.00859 1.25295 1.02247 1.25569 1.1607C1.25734 1.24171 1.26255 1.33264 1.26748 1.36267L1.27625 1.41734L1.41408 1.40686C1.48998 1.40091 2.34714 1.39638 3.31907 1.39638L3.3191 1.39695Z" fill="#FF0000"/>
</svg>
