<svg width="17" height="20" viewBox="0 0 17 20" fill="none" xmlns="http://www.w3.org/2000/svg">
<path d="M11.2255 15.3182V16C11.2255 16.7233 10.9384 17.417 10.4273 17.9285C9.91632 18.4399 9.22321 18.7273 8.50051 18.7273C7.7778 18.7273 7.0847 18.4399 6.57367 17.9285C6.06264 17.417 5.77555 16.7233 5.77555 16V15.3182M15.8102 13.9303C14.7168 12.5909 13.9449 11.9091 13.9449 8.21662C13.9449 4.83523 12.2197 3.63054 10.7997 3.04545C10.6111 2.9679 10.4335 2.78977 10.376 2.59588C10.127 1.74744 9.4287 1 8.50051 1C7.57232 1 6.87362 1.74787 6.6271 2.59673C6.56962 2.79276 6.39207 2.9679 6.20345 3.04545C4.78179 3.63139 3.05825 4.83182 3.05825 8.21662C3.05612 11.9091 2.28419 12.5909 1.1908 13.9303C0.737773 14.4851 1.1346 15.3182 1.92696 15.3182H15.0783C15.8664 15.3182 16.2607 14.4825 15.8102 13.9303Z" stroke="white" stroke-width="2" stroke-linecap="round" stroke-linejoin="round"/>
</svg>
