<svg width="18" height="15" viewBox="0 0 18 15" fill="none" xmlns="http://www.w3.org/2000/svg">
<path d="M16.4118 14.9659H1.58824C0.688235 14.9659 0 14.2777 0 13.3777V3.84825C0 2.94825 0.688235 2.26002 1.58824 2.26002H4.76471C4.87059 2.26002 5.02941 2.15414 5.08235 2.10119L5.66471 0.936489C5.87647 0.512959 6.40588 0.195312 6.88235 0.195312H11.1176C11.5941 0.195312 12.1235 0.512959 12.3353 0.936489L12.9176 2.10119C12.9706 2.20708 13.1294 2.26002 13.2353 2.26002H16.4118C17.3118 2.26002 18 2.94825 18 3.84825V13.3777C18 14.2777 17.3118 14.9659 16.4118 14.9659ZM1.58824 3.31884C1.27059 3.31884 1.05882 3.53061 1.05882 3.84825V13.3777C1.05882 13.6953 1.27059 13.9071 1.58824 13.9071H16.4118C16.7294 13.9071 16.9412 13.6953 16.9412 13.3777V3.84825C16.9412 3.53061 16.7294 3.31884 16.4118 3.31884H13.2353C12.7588 3.31884 12.2294 3.00119 12.0176 2.57767L11.4353 1.41296C11.3824 1.30708 11.2235 1.20119 11.1176 1.20119H6.88235C6.77647 1.20119 6.61765 1.30708 6.56471 1.36002L5.98235 2.52472C5.77059 3.00119 5.24118 3.31884 4.76471 3.31884H1.58824Z" fill="black"/>
<path d="M9.00689 12.3732C6.35983 12.3732 4.24219 10.2555 4.24219 7.60846C4.24219 4.9614 6.35983 2.84375 9.00689 2.84375C11.654 2.84375 13.7716 4.9614 13.7716 7.60846C13.7716 10.2555 11.654 12.3732 9.00689 12.3732ZM9.00689 3.90257C6.94219 3.90257 5.30101 5.54375 5.30101 7.60846C5.30101 9.67316 6.94219 11.3143 9.00689 11.3143C11.0716 11.3143 12.7128 9.67316 12.7128 7.60846C12.7128 5.54375 11.0716 3.90257 9.00689 3.90257Z" fill="black"/>
<path d="M14.2872 4.42601C14.5796 4.42601 14.8166 4.18899 14.8166 3.8966C14.8166 3.60421 14.5796 3.36719 14.2872 3.36719C13.9948 3.36719 13.7578 3.60421 13.7578 3.8966C13.7578 4.18899 13.9948 4.42601 14.2872 4.42601Z" fill="#E98862"/>
<path d="M2.125 0.71875H4.24265V1.24816H2.125V0.71875ZM9.00735 5.48346V4.95404C7.525 4.95404 6.36029 6.11875 6.36029 7.6011H6.88971C6.88971 6.4364 7.84265 5.48346 9.00735 5.48346Z" fill="#E98862"/>
</svg>

