<svg width="24" height="25" viewBox="0 0 24 25" fill="none" xmlns="http://www.w3.org/2000/svg">
<ellipse cx="12" cy="12.5" rx="12" ry="12.5" fill="#D9D9D9"/>
<path d="M12.5 16.65C13.375 16.65 14.1189 16.3439 14.7316 15.7316C15.3443 15.1193 15.6505 14.3755 15.65 13.5C15.6495 12.6245 15.3434 11.8809 14.7316 11.2691C14.1198 10.6573 13.3759 10.3509 12.5 10.35C11.6241 10.3491 10.8804 10.6554 10.2691 11.2691C9.65777 11.8828 9.3514 12.6264 9.35 13.5C9.3486 14.3736 9.65497 15.1175 10.2691 15.7316C10.8832 16.3457 11.6269 16.6519 12.5 16.65ZM12.5 15.25C12.01 15.25 11.5958 15.0808 11.2575 14.7425C10.9192 14.4042 10.75 13.99 10.75 13.5C10.75 13.01 10.9192 12.5958 11.2575 12.2575C11.5958 11.9192 12.01 11.75 12.5 11.75C12.99 11.75 13.4042 11.9192 13.7425 12.2575C14.0808 12.5958 14.25 13.01 14.25 13.5C14.25 13.99 14.0808 14.4042 13.7425 14.7425C13.4042 15.0808 12.99 15.25 12.5 15.25ZM6.9 19.1C6.515 19.1 6.18553 18.963 5.9116 18.6891C5.63767 18.4152 5.50047 18.0855 5.5 17.7V9.3C5.5 8.915 5.6372 8.58553 5.9116 8.3116C6.186 8.03767 6.51547 7.90047 6.9 7.9H9.105L10.4 6.5H14.6L15.895 7.9H18.1C18.485 7.9 18.8147 8.0372 19.0891 8.3116C19.3635 8.586 19.5005 8.91547 19.5 9.3V17.7C19.5 18.085 19.363 18.4147 19.0891 18.6891C18.8152 18.9635 18.4855 19.1005 18.1 19.1H6.9ZM6.9 17.7H18.1V9.3H15.265L13.9875 7.9H11.0125L9.735 9.3H6.9V17.7Z" fill="#5D6FC9"/>
</svg>
