<svg width="12" height="9" viewBox="0 0 12 9" fill="none" xmlns="http://www.w3.org/2000/svg">
<path d="M8.74803 8.48229H0.176729C0.0790862 8.48229 0 8.40321 0 8.30558V6.185C0 6.12978 0.0256254 6.07809 0.0693658 6.04451L0.77628 5.50466C0.829741 5.46401 0.90176 5.45694 0.961842 5.48654C1.02237 5.51658 1.06037 5.57799 1.06037 5.64514V7.42201H3.97636V3.14727C3.97636 3.09205 4.00199 3.04036 4.04573 3.00678L4.75264 2.46692C4.8061 2.42628 4.87812 2.41921 4.9382 2.44881C4.99873 2.47885 5.03673 2.54026 5.03673 2.6074V7.42196H7.86438V0.176715C7.86438 0.07908 7.94347 0 8.04111 0H8.74803C8.84567 0 8.92475 0.07908 8.92475 0.176715V8.30559C8.92475 8.40322 8.84567 8.48229 8.74803 8.48229ZM0.3534 8.12887H8.57125V0.35342H8.21779V7.59866C8.21779 7.6963 8.1387 7.77538 8.04106 7.77538H4.85995C4.76231 7.77538 4.68322 7.6963 4.68322 7.59866V2.96473L4.32976 3.23466V7.59863C4.32976 7.69627 4.25068 7.77535 4.15303 7.77535H0.883586C0.785944 7.77535 0.706858 7.69627 0.706858 7.59863V6.00249L0.3534 6.27242V8.12887Z" fill="white"/>
<path d="M0.176777 6.36149C0.101225 6.36149 0.0336297 6.31334 0.00932319 6.24133C-0.0149766 6.16976 0.00932318 6.09024 0.0694109 6.04429L7.9338 0.0359895C8.01156 -0.022768 8.12202 -0.00818866 8.18122 0.0695658C8.24043 0.146878 8.22584 0.257771 8.14853 0.316966L0.284136 6.32526C0.253209 6.34868 0.215657 6.36149 0.176777 6.36149Z" fill="white"/>
<path d="M3.77373 7.7711C3.74059 7.7711 3.70878 7.76182 3.68094 7.74459L0.802956 5.96772C0.76275 5.94342 0.734474 5.90366 0.723428 5.85815C0.712824 5.81265 0.720335 5.76449 0.745077 5.72429C0.769819 5.68453 0.809142 5.65626 0.855091 5.64521C0.900598 5.63461 0.948757 5.64256 0.988523 5.6673L3.86651 7.44417C3.93367 7.4857 3.96548 7.56654 3.94383 7.64253C3.92218 7.71896 3.85237 7.7711 3.77373 7.7711Z" fill="white"/>
<path d="M4.14613 7.39825C4.11344 7.39825 4.08118 7.38898 4.05335 7.37175L1.10727 5.55337C1.02421 5.50212 0.998581 5.39344 1.04983 5.31039C1.10108 5.22733 1.20978 5.20171 1.29283 5.25296L4.23891 7.07134C4.30607 7.11286 4.33788 7.19371 4.31623 7.2697C4.29458 7.34613 4.22521 7.39825 4.14613 7.39825Z" fill="white"/>
<path d="M5.35644 7.74958C5.29812 7.74958 5.24333 7.72086 5.21063 7.67227C5.17749 7.62411 5.17042 7.5627 5.19207 7.50837L7.87394 0.666879C7.90928 0.575871 8.01179 0.531253 8.10279 0.567036C8.19381 0.602378 8.23843 0.704879 8.20265 0.795877L5.52078 7.63736C5.49427 7.70496 5.42933 7.74958 5.35644 7.74958Z" fill="white"/>
<path d="M4.85644 7.59699C4.79812 7.59699 4.74333 7.56827 4.71063 7.51967C4.67749 7.47152 4.67042 7.41011 4.69207 7.35577L7.38626 0.484203C7.39775 0.454162 7.41763 0.427654 7.44326 0.408215L7.93015 0.0362262C7.96108 0.0128116 7.99863 0 8.03751 0H8.30261C8.40025 0 8.47934 0.0790799 8.47934 0.176715C8.47934 0.274349 8.40025 0.353429 8.30261 0.353429H8.09716L7.69687 0.659143L5.02077 7.4848C4.99427 7.55239 4.92933 7.59699 4.85644 7.59699Z" fill="white"/>
<path d="M10.9639 8.46106H8.75485C8.65721 8.46106 8.57812 8.38198 8.57812 8.28435V4.92671C8.57812 4.82908 8.65721 4.75 8.75485 4.75H10.9639C11.0616 4.75 11.1407 4.82908 11.1407 4.92671V8.28435C11.1407 8.38198 11.0616 8.46106 10.9639 8.46106ZM8.93153 8.10763H10.7871V5.10354H8.93153V8.10763Z" fill="white"/>
<path d="M10.2392 8.39128C10.1416 8.39128 10.0625 8.3122 10.0625 8.21456V5.12203C10.0625 5.02439 10.1416 4.94531 10.2392 4.94531C10.3369 4.94531 10.416 5.02439 10.416 5.12203V8.21456C10.416 8.3122 10.3369 8.39128 10.2392 8.39128Z" fill="white"/>
<path d="M9.45798 8.39128C9.36034 8.39128 9.28125 8.3122 9.28125 8.21456V5.12203C9.28125 5.02439 9.36034 4.94531 9.45798 4.94531C9.55562 4.94531 9.63471 5.02439 9.63471 5.12203V8.21456C9.63471 8.3122 9.55562 8.39128 9.45798 8.39128Z" fill="white"/>
</svg>
