<svg width="12" height="10" viewBox="0 0 12 10" fill="none" xmlns="http://www.w3.org/2000/svg">
<path d="M1 4.89869C1 3.0278 1 2.09211 1.58146 1.51115C2.16292 0.930184 3.09811 0.929688 4.969 0.929688H6.9535C8.82439 0.929688 9.76008 0.929687 10.341 1.51115C10.922 2.0926 10.9225 3.0278 10.9225 4.89869C10.9225 6.76957 10.9225 7.70527 10.341 8.28623C9.75958 8.86719 8.82439 8.86769 6.9535 8.86769H4.969C3.09811 8.86769 2.16242 8.86769 1.58146 8.28623C1.0005 7.70477 1 6.76957 1 4.89869Z" stroke="white" stroke-width="0.8505"/>
<path d="M4.969 6.883H2.9845M6.9535 6.883H6.20931M1 3.90625H10.9225" stroke="white" stroke-width="0.8505" stroke-linecap="round"/>
</svg>
