<svg width="14" height="14" viewBox="0 0 14 14" fill="none" xmlns="http://www.w3.org/2000/svg">
<path d="M11.9324 6.77169L7.20744 2.04669C7.01844 1.85769 6.75594 1.74219 6.46719 1.74219H2.79219C2.21469 1.74219 1.74219 2.21469 1.74219 2.79219V6.46719C1.74219 6.75594 1.85769 7.01844 2.05194 7.21269L6.77694 11.9377C6.96594 12.1267 7.22844 12.2422 7.51719 12.2422C7.80594 12.2422 8.06844 12.1267 8.25744 11.9324L11.9324 8.25744C12.1267 8.06844 12.2422 7.80594 12.2422 7.51719C12.2422 7.22844 12.1214 6.96069 11.9324 6.77169ZM7.51719 11.1974L2.79219 6.46719V2.79219H6.46719V2.78694L11.1922 7.51194L7.51719 11.1974Z" fill="white"/>
<path d="M4.10781 4.89531C4.54274 4.89531 4.89531 4.54274 4.89531 4.10781C4.89531 3.67289 4.54274 3.32031 4.10781 3.32031C3.67289 3.32031 3.32031 3.67289 3.32031 4.10781C3.32031 4.54274 3.67289 4.89531 4.10781 4.89531Z" fill="white"/>
</svg>
