<svg width="11" height="11" viewBox="0 0 11 11" fill="none" xmlns="http://www.w3.org/2000/svg">
<path d="M1.80085 1.85813V1.35463C1.80085 0.983135 1.95313 0.644445 2.19861 0.398695L2.20008 0.397228C2.44583 0.152144 2.78425 0 3.15548 0H7.64486C8.01635 0 8.35504 0.152277 8.60079 0.397761L8.60226 0.399228C8.84734 0.644978 8.99949 0.983402 8.99949 1.35463V2.801C9.04949 2.80313 9.09896 2.8106 9.14696 2.82353C9.31417 2.8682 9.46498 2.97701 9.55806 3.13809L10.209 4.2667C10.3029 4.42831 10.3216 4.61299 10.2768 4.77993C10.2322 4.94675 10.1233 5.09716 9.96195 5.1905L8.99949 5.74654V9.23118C8.99949 9.60267 8.84721 9.94136 8.60172 10.1871L8.60026 10.1886C8.35451 10.4337 8.01608 10.5858 7.64486 10.5858H3.15548C2.78398 10.5858 2.44529 10.4335 2.19954 10.188L2.19808 10.1866C1.95299 9.94083 1.80085 9.6024 1.80085 9.23118V8.92796L1.20721 9.08704C1.02786 9.13504 0.844648 9.10517 0.694637 9.01863C0.544227 8.93196 0.426352 8.78782 0.378348 8.6082L0.0228568 7.28171C-0.0251465 7.10236 0.00472225 6.91915 0.0912616 6.76914C0.177934 6.61873 0.322078 6.50085 0.50169 6.45285L1.80085 6.10469V4.54405H1.75764C1.57203 4.54405 1.40255 4.46778 1.28001 4.34537C1.15667 4.2219 1.0804 4.05268 1.0804 3.8668V2.53538C1.0804 2.34976 1.15667 2.18029 1.27908 2.05774C1.40255 1.9344 1.57203 1.85813 1.75764 1.85813H1.80085ZM4.37849 1.09554C4.25382 1.09554 4.15275 0.99447 4.15275 0.869794C4.15275 0.745119 4.25382 0.644045 4.37849 0.644045H6.42184C6.54651 0.644045 6.64759 0.745119 6.64759 0.869794C6.64759 0.99447 6.54651 1.09554 6.42184 1.09554H4.37849ZM8.54799 2.94087V1.35463C8.54799 1.10594 8.44665 0.880062 8.28343 0.716984C8.11942 0.552839 7.89354 0.451498 7.64486 0.451498H3.15548C2.90679 0.451498 2.68091 0.552839 2.51783 0.71605C2.35369 0.880062 2.25235 1.10594 2.25235 1.35463V1.85813H3.08907C3.27495 1.85813 3.44416 1.9344 3.5667 2.05681C3.69005 2.18029 3.76632 2.34976 3.76632 2.53538V3.8668C3.76632 4.02828 3.70818 4.17803 3.61177 4.29523C3.57057 4.3455 3.5223 4.38977 3.46856 4.42658L3.88259 5.43038C3.91366 5.50639 3.90193 5.59679 3.84459 5.66306C3.76338 5.75694 3.62111 5.7672 3.52724 5.686L2.25235 4.57819V6.12296C2.28288 6.13523 2.31235 6.14936 2.34075 6.16576C2.49116 6.25244 2.6089 6.39645 2.65717 6.57619L3.01253 7.90269C3.06054 8.08203 3.03067 8.26524 2.94413 8.41525C2.85745 8.56567 2.71331 8.68354 2.5337 8.73154L2.25235 8.80688V9.23118C2.25235 9.48 2.35369 9.70575 2.5169 9.86882C2.68091 10.033 2.90679 10.1343 3.15548 10.1343H7.64486C7.89354 10.1343 8.11942 10.033 8.2825 9.86976C8.44665 9.70575 8.54799 9.47986 8.54799 9.23118V6.00735L8.44305 6.06802C8.33544 6.1303 8.19743 6.09363 8.13516 5.98602L6.7996 3.67132C6.71426 3.51385 6.69786 3.33583 6.74106 3.17449C6.78613 3.00714 6.89494 2.8566 7.05655 2.76299L7.06242 2.75966C7.22269 2.66912 7.40511 2.65112 7.56992 2.69499C7.73806 2.73979 7.88927 2.8486 7.98221 3.00968L8.09382 3.20302L8.54799 2.94087ZM8.85854 3.28076L8.12409 3.70533C8.01648 3.7676 7.87847 3.73093 7.8162 3.62332L7.59232 3.23556C7.56125 3.18169 7.51085 3.14529 7.45524 3.13049C7.40177 3.11635 7.34337 3.12102 7.2915 3.14795L7.27283 3.15875C7.22403 3.19036 7.19069 3.23823 7.17656 3.29076C7.16269 3.3429 7.16669 3.39984 7.19149 3.45024L8.41251 5.56532L9.73634 4.801C9.79007 4.7706 9.82634 4.71993 9.84128 4.66366C9.85634 4.60739 9.85034 4.54565 9.81954 4.49231L9.16816 3.36397C9.13723 3.31036 9.08669 3.27396 9.03069 3.25903C8.97415 3.24383 8.91201 3.24996 8.85854 3.28076ZM6.54691 4.35524C6.48518 4.24763 6.52224 4.11002 6.62985 4.04828C6.73746 3.98655 6.87507 4.02361 6.93681 4.13122L8.03955 6.04136C8.10129 6.14896 8.06422 6.28657 7.95661 6.34831C7.849 6.41005 7.71139 6.37298 7.64966 6.26537L6.54691 4.35524ZM1.94459 6.53286L0.617965 6.88835C0.557827 6.90435 0.509691 6.94355 0.481156 6.99316C0.45222 7.04329 0.442219 7.1049 0.458354 7.16543L0.813845 8.49193C0.829847 8.55206 0.869049 8.6002 0.918653 8.62874C0.96879 8.65767 1.03053 8.66767 1.09093 8.65154C1.5331 8.533 1.97526 8.41459 2.41742 8.29605C2.47756 8.28005 2.5257 8.24084 2.55423 8.19124C2.58317 8.1411 2.59317 8.07936 2.57704 8.01896L2.22168 6.69247C2.20554 6.63246 2.16634 6.58419 2.11674 6.55566C2.06513 6.52592 2.0022 6.51726 1.94459 6.53286ZM2.1042 7.64267L1.37588 8.37099C1.28775 8.45859 1.1452 8.45819 1.0576 8.37005C1.02879 8.34112 1.00959 8.30631 0.999725 8.26938L0.73024 7.26437C0.698237 7.14423 0.769709 7.02049 0.889851 6.98849C0.92932 6.97795 0.96919 6.97862 1.00613 6.98849L2.01113 7.25784C2.13127 7.28984 2.20274 7.41359 2.17074 7.53373C2.15914 7.57733 2.1354 7.61453 2.1042 7.64267ZM1.51816 7.59226L1.26654 7.52493L1.33402 7.77641L1.51816 7.59226ZM3.13281 4.08855C3.18561 4.07775 3.23188 4.04908 3.26428 4.00961C3.29575 3.97134 3.31482 3.92134 3.31482 3.8668V2.53538C3.31482 2.47311 3.28935 2.41644 3.24882 2.37563C3.20801 2.3351 3.15134 2.30963 3.08907 2.30963H1.75764C1.69537 2.30963 1.6387 2.3351 1.5979 2.37563C1.55736 2.41644 1.5319 2.47311 1.5319 2.53538V3.8668C1.5319 3.92907 1.55736 3.98574 1.5979 4.02655C1.6387 4.06708 1.69537 4.09255 1.75764 4.09255H2.29622C2.35942 4.09255 2.41662 4.11856 2.45756 4.16042L3.10347 4.72166L2.9688 4.39511C2.92159 4.28017 2.97653 4.14869 3.09147 4.10149L3.13281 4.08855ZM5.16802 8.35658L5.17388 7.42372L4.74425 7.42105C4.77172 7.636 4.83893 7.84228 4.94053 8.03016C5.00347 8.14644 5.07974 8.25604 5.16802 8.35658ZM5.17682 6.97409L5.18282 6.02762C5.08828 6.13256 5.00694 6.24804 4.94053 6.37071C4.84026 6.55619 4.77346 6.75954 4.74532 6.97142L5.17682 6.97409ZM5.63232 6.04429L5.62645 6.97702L6.05608 6.97969C6.02861 6.76487 5.9614 6.55859 5.8598 6.37071C5.79686 6.25444 5.72059 6.14483 5.63232 6.04429ZM5.62351 7.42665L5.61751 8.37325C5.71205 8.26831 5.79339 8.15284 5.8598 8.03016C5.96007 7.84468 6.02688 7.6412 6.05501 7.42932L5.62351 7.42665ZM3.96007 6.96649L4.29116 6.96849C4.32182 6.68247 4.4085 6.40738 4.54371 6.15736C4.58664 6.07816 4.63438 6.00135 4.68678 5.92761C4.56971 5.99335 4.46277 6.07469 4.36863 6.16883C4.15688 6.38058 4.00994 6.6574 3.96007 6.96649ZM6.51064 6.98262L6.84307 6.98462C6.79613 6.66807 6.64759 6.38471 6.4317 6.16883C6.33756 6.07469 6.23049 5.99335 6.11355 5.92761C6.16595 6.00149 6.21369 6.07816 6.25663 6.15736C6.39397 6.41152 6.48144 6.69153 6.51064 6.98262ZM6.84027 7.43425L6.50918 7.43225C6.47851 7.71827 6.39184 7.99349 6.25663 8.24351C6.21382 8.32271 6.16609 8.39939 6.11368 8.47313C6.23062 8.40739 6.33756 8.32605 6.4317 8.23191C6.64345 8.02016 6.7904 7.74347 6.84027 7.43425ZM4.28969 7.41812L3.95726 7.41612C4.0042 7.73254 4.15275 8.01603 4.36863 8.23191C4.46277 8.32605 4.56971 8.40752 4.68665 8.47313C4.63425 8.39939 4.58651 8.32271 4.54371 8.24351C4.40636 7.98936 4.31889 7.70921 4.28969 7.41812ZM5.40017 5.2901C5.92754 5.2901 6.4053 5.50398 6.75093 5.84961C7.09655 6.19523 7.31043 6.67313 7.31043 7.20037C7.31043 7.72774 7.09655 8.20551 6.75093 8.55113C6.4053 8.89676 5.92754 9.11064 5.40017 9.11064C4.87293 9.11064 4.39503 8.89676 4.0494 8.55113C3.70378 8.20551 3.4899 7.72774 3.4899 7.20037C3.4899 6.67313 3.70378 6.19523 4.0494 5.84961C4.39503 5.50398 4.87293 5.2901 5.40017 5.2901Z" fill="white"/>
</svg>
