<svg width="10" height="10" viewBox="0 0 10 10" fill="none" xmlns="http://www.w3.org/2000/svg">
<path d="M6.42857 4.28571H9.28571C9.47515 4.28571 9.65684 4.21046 9.79079 4.0765C9.92475 3.94255 10 3.76087 10 3.57143V0.714286C10 0.524845 9.92475 0.343164 9.79079 0.209209C9.65684 0.0752549 9.47515 0 9.28571 0H6.42857C6.23913 0 6.05745 0.0752549 5.9235 0.209209C5.78954 0.343164 5.71429 0.524845 5.71429 0.714286H2.5C2.31056 0.714286 2.12888 0.789541 1.99492 0.923495C1.86097 1.05745 1.78571 1.23913 1.78571 1.42857V2.85714H0.714286C0.524845 2.85714 0.343164 2.9324 0.209209 3.06635C0.0752549 3.20031 0 3.38199 0 3.57143V6.42857C0 6.61801 0.0752549 6.79969 0.209209 6.93365C0.343164 7.0676 0.524845 7.14286 0.714286 7.14286H1.42857V8.57143C1.42857 8.76087 1.50383 8.94255 1.63778 9.0765C1.77174 9.21046 1.95342 9.28571 2.14286 9.28571H5.71429C5.71429 9.47515 5.78954 9.65684 5.9235 9.79079C6.05745 9.92475 6.23913 10 6.42857 10H9.28571C9.47515 10 9.65684 9.92475 9.79079 9.79079C9.92475 9.65684 10 9.47515 10 9.28571V6.42857C10 6.23913 9.92475 6.05745 9.79079 5.9235C9.65684 5.78954 9.47515 5.71429 9.28571 5.71429H6.42857C6.23913 5.71429 6.05745 5.78954 5.9235 5.9235C5.78954 6.05745 5.71429 6.23913 5.71429 6.42857V8.57143H2.14286V7.14286H3.57143C3.76087 7.14286 3.94255 7.0676 4.0765 6.93365C4.21046 6.79969 4.28571 6.61801 4.28571 6.42857V3.57143C4.28571 3.38199 4.21046 3.20031 4.0765 3.06635C3.94255 2.9324 3.76087 2.85714 3.57143 2.85714H2.5V1.42857H5.71429V3.57143C5.71429 3.76087 5.78954 3.94255 5.9235 4.0765C6.05745 4.21046 6.23913 4.28571 6.42857 4.28571ZM6.42857 9.28571V7.85714H9.28571V9.28571H6.42857ZM9.28571 6.42857V7.14286H6.42857V6.42857H9.28571ZM0.714286 6.42857V5H3.57143V6.42857H0.714286ZM3.57143 4.28571H0.714286V3.57143H3.57143V4.28571ZM6.42857 3.57143V2.14286H9.28571V3.57143H6.42857ZM9.28571 0.714286V1.42857H6.42857V0.714286H9.28571Z" fill="white"/>
</svg>
