<svg width="10" height="7" viewBox="0 0 10 7" fill="none" xmlns="http://www.w3.org/2000/svg">
<path d="M2.5 1.26562V1.88437H3.125V1.26562H2.5ZM6.875 1.26562V1.88437H7.5V1.26562H6.875ZM2.5 2.50312V3.12187H3.125V2.50312H2.5ZM6.875 2.50312V3.12187H7.5V2.50312H6.875ZM2.5 3.74062V4.35937H3.125V3.74062H2.5ZM6.875 3.74062V4.35937H7.5V3.74062H6.875ZM2.5 4.97812V5.59687H3.125V4.97812H2.5ZM6.875 4.97812V5.59687H7.5V4.97812H6.875Z" fill="white"/>
<path d="M0.9375 0C0.68886 0 0.450403 0.108649 0.274587 0.302046C0.098772 0.495443 0 0.757745 0 1.03125L0 2.0625C0 2.15367 0.032924 2.2411 0.0915291 2.30557C0.150134 2.37003 0.22962 2.40625 0.3125 2.40625C0.56114 2.40625 0.799597 2.5149 0.975413 2.7083C1.15123 2.90169 1.25 3.164 1.25 3.4375C1.25 3.711 1.15123 3.97331 0.975413 4.1667C0.799597 4.3601 0.56114 4.46875 0.3125 4.46875C0.22962 4.46875 0.150134 4.50497 0.0915291 4.56943C0.032924 4.6339 0 4.72133 0 4.8125L0 5.84375C0 6.11725 0.098772 6.37956 0.274587 6.57295C0.450403 6.76635 0.68886 6.875 0.9375 6.875H9.0625C9.31114 6.875 9.5496 6.76635 9.72541 6.57295C9.90123 6.37956 10 6.11725 10 5.84375V4.8125C10 4.72133 9.96708 4.6339 9.90847 4.56943C9.84987 4.50497 9.77038 4.46875 9.6875 4.46875C9.43886 4.46875 9.2004 4.3601 9.02459 4.1667C8.84877 3.97331 8.75 3.711 8.75 3.4375C8.75 3.164 8.84877 2.90169 9.02459 2.7083C9.2004 2.5149 9.43886 2.40625 9.6875 2.40625C9.77038 2.40625 9.84987 2.37003 9.90847 2.30557C9.96708 2.2411 10 2.15367 10 2.0625V1.03125C10 0.757745 9.90123 0.495443 9.72541 0.302046C9.5496 0.108649 9.31114 0 9.0625 0H0.9375ZM0.625 1.03125C0.625 0.940082 0.657924 0.852648 0.716529 0.788182C0.775134 0.723716 0.85462 0.6875 0.9375 0.6875H9.0625C9.14538 0.6875 9.22487 0.723716 9.28347 0.788182C9.34208 0.852648 9.375 0.940082 9.375 1.03125V1.75313C9.02178 1.83202 8.70423 2.04281 8.47613 2.34979C8.24804 2.65676 8.12343 3.04103 8.12343 3.4375C8.12343 3.83397 8.24804 4.21824 8.47613 4.52521C8.70423 4.83219 9.02178 5.04298 9.375 5.12187V5.84375C9.375 5.93492 9.34208 6.02235 9.28347 6.08682C9.22487 6.15128 9.14538 6.1875 9.0625 6.1875H0.9375C0.85462 6.1875 0.775134 6.15128 0.716529 6.08682C0.657924 6.02235 0.625 5.93492 0.625 5.84375V5.12187C0.978215 5.04298 1.29577 4.83219 1.52387 4.52521C1.75196 4.21824 1.87657 3.83397 1.87657 3.4375C1.87657 3.04103 1.75196 2.65676 1.52387 2.34979C1.29577 2.04281 0.978215 1.83202 0.625 1.75313V1.03125Z" fill="white"/>
</svg>
