<svg width="17" height="17" viewBox="0 0 17 17" fill="none" xmlns="http://www.w3.org/2000/svg">
<path d="M9.44844 5.40312V4.05312C9.44844 3.69508 9.30621 3.3517 9.05303 3.09853C8.79986 2.84536 8.45648 2.70313 8.09844 2.70312H3.37344C3.0154 2.70313 2.67202 2.84536 2.41884 3.09853C2.16567 3.3517 2.02344 3.69508 2.02344 4.05312V12.1531C2.02344 12.5112 2.16567 12.8545 2.41884 13.1077C2.67202 13.3609 3.0154 13.5031 3.37344 13.5031H8.09844C8.45648 13.5031 8.79986 13.3609 9.05303 13.1077C9.30621 12.8545 9.44844 12.5112 9.44844 12.1531V10.8031" stroke="white" stroke-width="1.6" stroke-linecap="round" stroke-linejoin="round"/>
<path d="M6.07031 8.10313H14.1703M14.1703 8.10313L12.1453 6.07812M14.1703 8.10313L12.1453 10.1281" stroke="white" stroke-width="1.6" stroke-linecap="round" stroke-linejoin="round"/>
</svg>
