<svg width="12" height="12" viewBox="0 0 12 12" fill="none" xmlns="http://www.w3.org/2000/svg">
<path d="M11.25 9.375H0.75V10.125H1.5V10.875H2.25V10.125H4.125V10.875H4.875V10.125H6.75V10.875H7.5V10.125H9.375V10.875H10.125V10.125H11.25V9.375ZM3 6H0.75V5.25H3V4.5H0.75V3.75H3C3.19891 3.75 3.38968 3.82902 3.53033 3.96967C3.67098 4.11032 3.75 4.30109 3.75 4.5V5.25C3.75 5.44891 3.67098 5.63968 3.53033 5.78033C3.38968 5.92098 3.19891 6 3 6Z" fill="white"/>
<path d="M10.7062 5.33625L7.48875 2.38725C6.86667 1.81594 6.05261 1.49926 5.208 1.5H0.75V2.25H4.5V3.75C4.5 3.94891 4.57902 4.13968 4.71967 4.28033C4.86032 4.42098 5.05109 4.5 5.25 4.5H8.68387L10.1992 5.88938C10.337 6.01556 10.4335 6.18042 10.4759 6.36236C10.5184 6.5443 10.5049 6.73482 10.4371 6.90894C10.3694 7.08307 10.2507 7.23267 10.0965 7.33815C9.9423 7.44362 9.75982 7.50004 9.573 7.5H0.75V8.25H9.57262C9.91058 8.25002 10.2407 8.14794 10.5196 7.95716C10.7986 7.76637 11.0134 7.49578 11.1359 7.18082C11.2585 6.86586 11.283 6.52124 11.2063 6.19209C11.1297 5.86295 10.9553 5.56464 10.7062 5.33625ZM5.25 3.75V2.25188C5.89212 2.26105 6.50846 2.50596 6.98175 2.94L7.86562 3.75H5.25Z" fill="white"/>
</svg>
