<svg width="13" height="14" viewBox="0 0 13 14" fill="none" xmlns="http://www.w3.org/2000/svg">
<path d="M2.22812 3.80521C2.22812 3.54301 2.44092 3.33021 2.70312 3.33021H7.13646C7.39866 3.33021 7.61146 3.54301 7.61146 3.80521C7.61146 4.06741 7.39866 4.28021 7.13646 4.28021H2.70312C2.44092 4.28021 2.22812 4.06741 2.22812 3.80521ZM4.60312 7.13021H2.70312C2.44092 7.13021 2.22812 7.34301 2.22812 7.60521C2.22812 7.86741 2.44092 8.08021 2.70312 8.08021H4.60312C4.86532 8.08021 5.07812 7.86741 5.07812 7.60521C5.07812 7.34301 4.86532 7.13021 4.60312 7.13021ZM2.70312 6.18021H7.13646C7.39866 6.18021 7.61146 5.96741 7.61146 5.70521C7.61146 5.44301 7.39866 5.23021 7.13646 5.23021H2.70312C2.44092 5.23021 2.22812 5.44301 2.22812 5.70521C2.22812 5.96741 2.44092 6.18021 2.70312 6.18021ZM9.66979 8.15937C9.40759 8.15937 9.19479 8.37217 9.19479 8.63438V9.90104C9.19479 10.1632 9.40759 10.376 9.66979 10.376C9.93199 10.376 10.1448 10.1632 10.1448 9.90104V8.63438C10.1448 8.37217 9.93199 8.15937 9.66979 8.15937ZM12.9948 9.82187C12.9948 11.6554 11.5033 13.1469 9.66979 13.1469C8.94589 13.1469 8.28026 12.9081 7.73369 12.5135H2.06979C1.10902 12.5135 0.328125 11.7326 0.328125 10.7719V2.53854C0.328125 1.57778 1.10902 0.796875 2.06979 0.796875H7.76979C8.73056 0.796875 9.51146 1.57778 9.51146 2.53854V6.51271C9.56529 6.51017 9.61532 6.49687 9.66979 6.49687C11.5033 6.49687 12.9948 7.98837 12.9948 9.82187ZM2.06979 11.5635H6.85019C6.53542 11.0556 6.34479 10.4622 6.34479 9.82187C6.34479 8.37914 7.27452 7.15998 8.56146 6.70144V2.53854C8.56146 2.10217 8.20616 1.74687 7.76979 1.74687H2.06979C1.63342 1.74687 1.27812 2.10217 1.27812 2.53854V10.7719C1.27812 11.2082 1.63342 11.5635 2.06979 11.5635ZM12.0448 9.82187C12.0448 8.51277 10.9789 7.44688 9.66979 7.44688C8.36069 7.44688 7.29479 8.51277 7.29479 9.82187C7.29479 11.131 8.36069 12.1969 9.66979 12.1969C10.9789 12.1969 12.0448 11.131 12.0448 9.82187ZM9.66979 10.6927C9.40759 10.6927 9.19479 10.9055 9.19479 11.1677C9.19479 11.4299 9.40759 11.6427 9.66979 11.6427C9.93199 11.6427 10.1448 11.4299 10.1448 11.1677C10.1448 10.9055 9.93199 10.6927 9.66979 10.6927Z" fill="white"/>
</svg>
