<svg width="15" height="15" viewBox="0 0 15 15" fill="none" xmlns="http://www.w3.org/2000/svg">
<path d="M9.57766 7.79977C9.69016 7.85227 9.81765 7.87477 9.93765 7.87477C10.1851 7.87477 10.4176 7.77727 10.5976 7.60477L12.2326 5.99982H12.9376C14.0775 5.99982 15 5.07735 15 3.93738V2.06244C15 0.922473 14.0775 0 12.9376 0H9.56266C8.42269 0 7.50022 0.922473 7.50022 2.06244V3.93738C7.50022 4.88236 8.1377 5.67733 9.00018 5.92482V6.93729C9.00018 7.31228 9.23267 7.64977 9.57766 7.79977ZM8.62519 2.06244C8.62519 1.54495 9.04518 1.12497 9.56266 1.12497H12.9376C13.455 1.12497 13.875 1.54495 13.875 2.06244V3.93738C13.875 4.45487 13.455 4.87486 12.9376 4.87486H11.7676L10.1251 6.48731V4.87486H9.56266C9.04518 4.87486 8.62519 4.45487 8.62519 3.93738V2.06244ZM4.50031 8.62474C3.05285 8.62474 1.87539 7.44728 1.87539 5.99982C1.87539 4.55237 3.05285 3.3749 4.50031 3.3749C5.94777 3.3749 7.12523 4.55237 7.12523 5.99982C7.12523 7.44728 5.94777 8.62474 4.50031 8.62474ZM4.50031 4.49987C3.67534 4.49987 3.00036 5.17485 3.00036 5.99982C3.00036 6.8248 3.67534 7.49978 4.50031 7.49978C5.32529 7.49978 6.00027 6.8248 6.00027 5.99982C6.00027 5.17485 5.32529 4.49987 4.50031 4.49987ZM4.50031 14.9996C2.95536 14.9996 1.77039 14.5796 0.975415 13.7471C-0.0265549 12.6941 -0.00180562 11.3667 0.000444313 11.2294V11.2197C0.000444313 10.4172 0.675424 9.74971 1.5004 9.74971H7.50022C8.3252 9.74971 9.00018 10.4247 9.00018 11.2497L9.00093 11.2542C9.00318 11.3494 9.03468 12.6866 8.02596 13.7471C7.23023 14.5796 6.04526 14.9996 4.50031 14.9996ZM1.5004 10.8747C1.29041 10.8747 1.12541 11.0397 1.12541 11.2497V11.2534C1.12541 11.3247 1.11266 12.2644 1.80039 12.9821C2.37037 13.5746 3.27785 13.8746 4.50031 13.8746C5.72277 13.8746 6.63775 13.5671 7.20773 12.9671C7.89246 12.2531 7.87671 11.3232 7.87521 11.2737V11.2722C7.87521 11.0397 7.70272 10.8672 7.50022 10.8672H1.5004V10.8747Z" fill="white"/>
</svg>
