<svg width="13" height="12" viewBox="0 0 13 12" fill="none" xmlns="http://www.w3.org/2000/svg">
<path d="M0 2.24499C0 2.13443 0.0439201 2.0284 0.122098 1.95022C0.200277 1.87205 0.306309 1.82813 0.41687 1.82812H0.727021C1.25506 1.82812 1.57188 2.1833 1.75252 2.51346C1.87314 2.73357 1.9604 2.98869 2.02877 3.21991L2.08435 3.21769H9.03107C9.49241 3.21769 9.8259 3.65902 9.69918 4.10312L8.68312 7.66541C8.59203 7.98493 8.3993 8.26607 8.13413 8.46625C7.86895 8.66644 7.54577 8.77477 7.21352 8.77484H3.90746C3.57257 8.77486 3.24695 8.66489 2.98063 8.46184C2.71432 8.25879 2.52206 7.9739 2.43341 7.65096L2.01098 6.11021L1.31064 3.74906L1.31008 3.74461C1.22337 3.42946 1.14222 3.13432 1.02105 2.91421C0.904886 2.70022 0.811507 2.66186 0.727577 2.66186H0.41687C0.306309 2.66186 0.200277 2.61794 0.122098 2.53977C0.0439201 2.46159 0 2.35556 0 2.24499ZM2.81971 5.90789L3.23713 7.4303C3.32051 7.73156 3.59453 7.9411 3.90746 7.9411H7.21352C7.36454 7.9411 7.51145 7.89189 7.632 7.80093C7.75255 7.70996 7.84018 7.58219 7.88162 7.43697L8.84709 4.05143H2.27055L2.81193 5.87843L2.81971 5.90789ZM4.72453 10.4434C4.72453 10.7383 4.60741 11.021 4.39893 11.2295C4.19046 11.438 3.9077 11.5551 3.61287 11.5551C3.31804 11.5551 3.03529 11.438 2.82682 11.2295C2.61834 11.021 2.50122 10.7383 2.50122 10.4434C2.50122 10.1486 2.61834 9.86585 2.82682 9.65738C3.03529 9.4489 3.31804 9.33178 3.61287 9.33178C3.9077 9.33178 4.19046 9.4489 4.39893 9.65738C4.60741 9.86585 4.72453 10.1486 4.72453 10.4434ZM3.89079 10.4434C3.89079 10.3697 3.86151 10.299 3.80939 10.2469C3.75727 10.1948 3.68658 10.1655 3.61287 10.1655C3.53917 10.1655 3.46848 10.1948 3.41636 10.2469C3.36424 10.299 3.33496 10.3697 3.33496 10.4434C3.33496 10.5171 3.36424 10.5878 3.41636 10.6399C3.46848 10.6921 3.53917 10.7213 3.61287 10.7213C3.68658 10.7213 3.75727 10.6921 3.80939 10.6399C3.86151 10.5878 3.89079 10.5171 3.89079 10.4434ZM8.61531 10.4434C8.61531 10.7383 8.49819 11.021 8.28972 11.2295C8.08124 11.438 7.79849 11.5551 7.50366 11.5551C7.20883 11.5551 6.92608 11.438 6.7176 11.2295C6.50913 11.021 6.39201 10.7383 6.39201 10.4434C6.39201 10.1486 6.50913 9.86585 6.7176 9.65738C6.92608 9.4489 7.20883 9.33178 7.50366 9.33178C7.79849 9.33178 8.08124 9.4489 8.28972 9.65738C8.49819 9.86585 8.61531 10.1486 8.61531 10.4434ZM7.78157 10.4434C7.78157 10.3697 7.75229 10.299 7.70017 10.2469C7.64806 10.1948 7.57737 10.1655 7.50366 10.1655C7.42995 10.1655 7.35926 10.1948 7.30715 10.2469C7.25503 10.299 7.22575 10.3697 7.22575 10.4434C7.22575 10.5171 7.25503 10.5878 7.30715 10.6399C7.35926 10.6921 7.42995 10.7213 7.50366 10.7213C7.57737 10.7213 7.64806 10.6921 7.70017 10.6399C7.75229 10.5878 7.78157 10.5171 7.78157 10.4434Z" fill="white"/>
<path d="M11.5978 2.40435C11.5978 3.45609 10.7452 4.30869 9.69341 4.30869C8.64167 4.30869 7.78906 3.45609 7.78906 2.40435C7.78906 1.35261 8.64167 0.5 9.69341 0.5C10.7452 0.5 11.5978 1.35261 11.5978 2.40435Z" fill="white" stroke="#9B987D"/>
<path d="M11.1327 1.71463L9.30598 3.54131L8.46875 2.70409L8.68338 2.48945L9.30598 3.11052L10.918 1.5L11.1327 1.71463Z" fill="#9F9544"/>
</svg>
