<svg width="10" height="10" viewBox="0 0 10 10" fill="none" xmlns="http://www.w3.org/2000/svg">
<path d="M4.56468 2.466V3.7635C4.56809 3.92153 4.52371 4.07691 4.43735 4.2093C4.351 4.34169 4.22668 4.44493 4.08068 4.5055C3.98371 4.54589 3.87973 4.56679 3.77468 4.567H2.47469C2.26496 4.567 2.06373 4.48414 1.91482 4.33645C1.76592 4.18876 1.6814 3.98822 1.67969 3.7785V2.481C1.67956 2.37663 1.70004 2.27327 1.73996 2.17684C1.77989 2.08041 1.83847 1.99282 1.91233 1.91909C1.9862 1.84536 2.07391 1.78695 2.17041 1.74721C2.26692 1.70746 2.37032 1.68717 2.47469 1.6875H3.77468C3.98184 1.68876 4.18031 1.77083 4.32787 1.91623C4.47542 2.06164 4.56039 2.25889 4.56468 2.466ZM4.56468 6.21349V7.51099C4.56495 7.72091 4.48191 7.92237 4.3338 8.07113C4.18569 8.2199 3.98461 8.30383 3.77468 8.30449H2.47469C2.2641 8.30449 2.06212 8.22094 1.91307 8.07217C1.76402 7.9234 1.68009 7.72158 1.67969 7.51099V6.21349C1.68075 6.00357 1.76505 5.80264 1.9141 5.65481C2.06315 5.50698 2.26476 5.42433 2.47469 5.425H3.77468C3.98394 5.42499 4.18466 5.50802 4.33277 5.65585C4.48088 5.80368 4.56428 6.00423 4.56468 6.21349ZM8.33467 2.466V3.7635C8.33765 3.97174 8.25853 4.17278 8.11444 4.32314C7.97034 4.47351 7.77285 4.56111 7.56467 4.567H6.26968C6.05995 4.567 5.85872 4.48414 5.70981 4.33645C5.56091 4.18876 5.47639 3.98822 5.47468 3.7785V2.481C5.47455 2.37663 5.49503 2.27327 5.53495 2.17684C5.57488 2.08041 5.63346 1.99282 5.70733 1.91909C5.78119 1.84536 5.8689 1.78695 5.9654 1.74721C6.06191 1.70746 6.16531 1.68717 6.26968 1.6875H7.56467C7.76833 1.69387 7.96178 1.77819 8.10506 1.92306C8.24835 2.06793 8.33054 2.26228 8.33467 2.466ZM8.33467 6.22349V7.52099C8.33502 7.72751 8.25473 7.926 8.11092 8.07421C7.9671 8.22241 7.77111 8.30862 7.56467 8.31449H6.26968C6.05909 8.31449 5.85711 8.23094 5.70806 8.08217C5.55901 7.9334 5.47508 7.73158 5.47468 7.52099V6.22349C5.47587 6.01361 5.56022 5.81276 5.70924 5.66496C5.85826 5.51716 6.05979 5.43446 6.26968 5.435H7.56467C7.77004 5.44145 7.96493 5.52716 8.10848 5.67416C8.25203 5.82116 8.33309 6.01803 8.33467 6.22349Z" fill="white"/>
<path d="M9.62499 3.84749C9.52603 3.8462 9.43147 3.80634 9.36143 3.7364C9.2914 3.66646 9.25142 3.57196 9.25 3.47299V1.931C9.25358 1.77475 9.22528 1.61942 9.16682 1.47448C9.10836 1.32954 9.02098 1.19803 8.91 1.088C8.69032 0.870775 8.39394 0.748807 8.085 0.748498H6.56C6.46072 0.748499 6.36549 0.709127 6.29519 0.639017C6.22489 0.568907 6.18527 0.473782 6.185 0.374499C6.18513 0.27513 6.2247 0.179876 6.29501 0.109658C6.36532 0.03944 6.46063 -8.83282e-08 6.56 0H8.1C8.60668 0.0127677 9.08799 0.224333 9.43999 0.588999C9.61807 0.76615 9.75926 0.976854 9.85538 1.20892C9.9515 1.44099 10.0007 1.68981 9.99999 1.941V3.48299C9.99726 3.58062 9.95655 3.67332 9.88651 3.74139C9.81648 3.80947 9.72266 3.84753 9.62499 3.84749ZM8.085 9.99998H6.56C6.46072 9.99998 6.36549 9.96061 6.29519 9.8905C6.22489 9.82039 6.18527 9.72526 6.185 9.62598C6.18513 9.52661 6.2247 9.43135 6.29501 9.36114C6.36532 9.29092 6.46063 9.25148 6.56 9.25148H8.1C8.33059 9.24963 8.55539 9.17911 8.74571 9.0489C8.93603 8.9187 9.08322 8.73473 9.1685 8.52048C9.22505 8.37854 9.25276 8.22675 9.25 8.07398V6.54698C9.25013 6.44762 9.28969 6.35236 9.36001 6.28214C9.43032 6.21193 9.52562 6.17249 9.62499 6.17249C9.72436 6.17249 9.81967 6.21193 9.88998 6.28214C9.96029 6.35236 9.99986 6.44762 9.99999 6.54698V8.07398C10.0009 8.45258 9.88904 8.82286 9.67861 9.13759C9.46817 9.45231 9.16873 9.69719 8.8185 9.84098C8.586 9.93648 8.3365 9.98598 8.085 9.98498V9.99998ZM3.46001 9.99998H1.92001C1.66717 9.9998 1.41683 9.94981 1.18331 9.85286C0.949787 9.75592 0.73765 9.61392 0.559016 9.43498C0.380772 9.25624 0.239623 9.04402 0.143689 8.81054C0.0477548 8.57705 -0.00107171 8.3269 1.78405e-05 8.07448V6.54748C0.000150333 6.44812 0.0397175 6.35286 0.110029 6.28264C0.180341 6.21243 0.275648 6.17299 0.375017 6.17299C0.474386 6.17299 0.569693 6.21243 0.640005 6.28264C0.710316 6.35286 0.749883 6.44812 0.750016 6.54748V8.07448C0.751207 8.38373 0.875096 8.67986 1.09447 8.89783C1.31384 9.11579 1.61076 9.23778 1.92001 9.23698H3.46001C3.55938 9.23698 3.65469 9.27642 3.725 9.34664C3.79531 9.41685 3.83488 9.51211 3.83501 9.61148C3.83507 9.66069 3.82541 9.70944 3.80658 9.75491C3.78774 9.80038 3.76011 9.84168 3.72526 9.87644C3.69041 9.91119 3.64904 9.93872 3.60352 9.95743C3.558 9.97614 3.50923 9.98567 3.46001 9.98548V9.99998ZM0.375017 3.84749C0.276049 3.8462 0.18149 3.80634 0.111457 3.7364C0.0414234 3.66646 0.00144196 3.57196 1.78405e-05 3.47299V1.931C0.00134473 1.4271 0.202781 0.944375 0.560016 0.588999C0.920597 0.231729 1.40741 0.0308957 1.91501 0.0299999H3.45501C3.55438 0.0299998 3.64969 0.0694399 3.72 0.139658C3.79031 0.209876 3.82988 0.30513 3.83001 0.404499C3.82974 0.503782 3.79012 0.598907 3.71982 0.669017C3.64952 0.739127 3.55429 0.778498 3.45501 0.778498H1.91501C1.60572 0.777568 1.30873 0.899508 1.08932 1.1175C0.869922 1.3355 0.746075 1.63171 0.745016 1.941V3.48299C0.742314 3.57976 0.702296 3.67173 0.633334 3.73967C0.564373 3.8076 0.471812 3.84624 0.375017 3.84749Z" fill="white"/>
</svg>
