<svg width="11" height="11" viewBox="0 0 11 11" fill="none" xmlns="http://www.w3.org/2000/svg">
<path fill-rule="evenodd" clip-rule="evenodd" d="M4.22591 0C4.10138 0 3.98195 0.0494698 3.89389 0.137527C3.80583 0.225584 3.75636 0.345014 3.75636 0.469545C3.75636 0.594077 3.80583 0.713507 3.89389 0.801564C3.98195 0.889621 4.10138 0.939091 4.22591 0.939091H4.69545V1.43775C4.0268 1.52104 3.3931 1.78354 2.86141 2.19747L2.30735 1.64341L2.6797 1.27106C2.76523 1.1825 2.81256 1.06389 2.81149 0.940781C2.81042 0.817667 2.76103 0.6999 2.67398 0.612842C2.58692 0.525784 2.46915 0.476403 2.34604 0.475333C2.22292 0.474263 2.10432 0.521591 2.01576 0.607122L0.607122 2.01576C0.521591 2.10432 0.474263 2.22292 0.475333 2.34604C0.476403 2.46915 0.525784 2.58692 0.612842 2.67398C0.6999 2.76103 0.817667 2.81042 0.940781 2.81149C1.06389 2.81256 1.1825 2.76523 1.27106 2.6797L1.64341 2.30735L2.19747 2.86141C1.78354 3.3931 1.52104 4.0268 1.43775 4.69545H0.939091V4.22591C0.939091 4.10138 0.889621 3.98195 0.801564 3.89389C0.713507 3.80583 0.594077 3.75636 0.469545 3.75636C0.345014 3.75636 0.225584 3.80583 0.137527 3.89389C0.0494698 3.98195 0 4.10138 0 4.22591V6.10409C0 6.22862 0.0494698 6.34805 0.137527 6.43611C0.225584 6.52417 0.345014 6.57364 0.469545 6.57364C0.594077 6.57364 0.713507 6.52417 0.801564 6.43611C0.889621 6.34805 0.939091 6.22862 0.939091 6.10409V5.63455H1.43775C1.52321 6.32008 1.79413 6.94927 2.19747 7.46859L1.64341 8.02265L1.27106 7.6503C1.1825 7.56477 1.06389 7.51744 0.940781 7.51851C0.817667 7.51958 0.6999 7.56897 0.612842 7.65602C0.525784 7.74308 0.476403 7.86085 0.475333 7.98396C0.474263 8.10708 0.521591 8.22568 0.607122 8.31424L2.01576 9.72288C2.10432 9.80841 2.22292 9.85574 2.34604 9.85467C2.46915 9.8536 2.58692 9.80422 2.67398 9.71716C2.76103 9.6301 2.81042 9.51233 2.81149 9.38922C2.81256 9.26611 2.76523 9.1475 2.6797 9.05894L2.30735 8.68659L2.86141 8.13253C3.39322 8.54626 4.02686 8.80874 4.69545 8.89225V9.39091H4.22591C4.10138 9.39091 3.98195 9.44038 3.89389 9.52844C3.80583 9.61649 3.75636 9.73592 3.75636 9.86045C3.75636 9.98499 3.80583 10.1044 3.89389 10.1925C3.98195 10.2805 4.10138 10.33 4.22591 10.33H6.10409C6.22862 10.33 6.34805 10.2805 6.43611 10.1925C6.52417 10.1044 6.57364 9.98499 6.57364 9.86045C6.57364 9.73592 6.52417 9.61649 6.43611 9.52844C6.34805 9.44038 6.22862 9.39091 6.10409 9.39091H5.63455V8.89225C6.30314 8.80874 6.93678 8.54626 7.46859 8.13253L8.02265 8.68659L7.6503 9.05894C7.56477 9.1475 7.51744 9.26611 7.51851 9.38922C7.51958 9.51233 7.56897 9.6301 7.65602 9.71716C7.74308 9.80422 7.86085 9.8536 7.98396 9.85467C8.10708 9.85574 8.22568 9.80841 8.31424 9.72288L9.72288 8.31424C9.80841 8.22568 9.85574 8.10708 9.85467 7.98396C9.8536 7.86085 9.80422 7.74308 9.71716 7.65602C9.6301 7.56897 9.51233 7.51958 9.38922 7.51851C9.26611 7.51744 9.1475 7.56477 9.05894 7.6503L8.68659 8.02265L8.13253 7.46859C8.54626 6.93678 8.80874 6.30314 8.89225 5.63455H9.39091V6.10409C9.39091 6.22862 9.44038 6.34805 9.52844 6.43611C9.61649 6.52417 9.73592 6.57364 9.86045 6.57364C9.98499 6.57364 10.1044 6.52417 10.1925 6.43611C10.2805 6.34805 10.33 6.22862 10.33 6.10409V4.22591C10.33 4.10138 10.2805 3.98195 10.1925 3.89389C10.1044 3.80583 9.98499 3.75636 9.86045 3.75636C9.73592 3.75636 9.61649 3.80583 9.52844 3.89389C9.44038 3.98195 9.39091 4.10138 9.39091 4.22591V4.69545H8.89225C8.80874 4.02686 8.54626 3.39322 8.13253 2.86141L8.68659 2.30735L9.05894 2.6797C9.10225 2.72454 9.15407 2.76031 9.21135 2.78492C9.26864 2.80953 9.33025 2.82248 9.3926 2.82302C9.45494 2.82357 9.51677 2.81169 9.57448 2.78808C9.63218 2.76447 9.68461 2.7296 9.7287 2.68552C9.77278 2.64143 9.80765 2.589 9.83126 2.5313C9.85487 2.47359 9.86675 2.41176 9.86621 2.34942C9.86567 2.28707 9.85271 2.22546 9.8281 2.16817C9.80349 2.11088 9.76772 2.05907 9.72288 2.01576L8.31424 0.607122C8.27093 0.562276 8.21912 0.526505 8.16183 0.501897C8.10454 0.477288 8.04293 0.464335 7.98058 0.463793C7.91824 0.463252 7.85641 0.475132 7.7987 0.498741C7.741 0.52235 7.68857 0.557215 7.64448 0.601302C7.6004 0.645389 7.56553 0.697815 7.54192 0.75552C7.51831 0.813226 7.50643 0.875055 7.50697 0.937401C7.50752 0.999747 7.52047 1.06136 7.54508 1.11865C7.56969 1.17593 7.60546 1.22775 7.6503 1.27106L8.02265 1.64341L7.46859 2.19747C6.93678 1.78374 6.30314 1.52126 5.63455 1.43775V0.939091H6.10409C6.22862 0.939091 6.34805 0.889621 6.43611 0.801564C6.52417 0.713507 6.57364 0.594077 6.57364 0.469545C6.57364 0.345014 6.52417 0.225584 6.43611 0.137527C6.34805 0.0494698 6.22862 0 6.10409 0H4.22591ZM5.63455 6.10409C5.63455 5.97956 5.68402 5.86013 5.77207 5.77207C5.86013 5.68402 5.97956 5.63455 6.10409 5.63455H6.10456C6.22909 5.63455 6.34852 5.68402 6.43658 5.77207C6.52464 5.86013 6.57411 5.97956 6.57411 6.10409C6.57411 6.22862 6.52464 6.34805 6.43658 6.43611C6.34852 6.52417 6.22909 6.57364 6.10456 6.57364H6.10409C5.97956 6.57364 5.86013 6.52417 5.77207 6.43611C5.68402 6.34805 5.63455 6.22862 5.63455 6.10409ZM4.22591 4.46068C4.22591 4.39842 4.25064 4.3387 4.29467 4.29467C4.3387 4.25064 4.39842 4.22591 4.46068 4.22591C4.52295 4.22591 4.58266 4.25064 4.62669 4.29467C4.67072 4.3387 4.69545 4.39842 4.69545 4.46068C4.69545 4.52295 4.67072 4.58266 4.62669 4.62669C4.58266 4.67072 4.52295 4.69545 4.46068 4.69545C4.39842 4.69545 4.3387 4.67072 4.29467 4.62669C4.25064 4.58266 4.22591 4.52295 4.22591 4.46068ZM4.46068 3.28682C4.14935 3.28682 3.85078 3.41049 3.63063 3.63063C3.41049 3.85078 3.28682 4.14935 3.28682 4.46068C3.28682 4.77201 3.41049 5.07059 3.63063 5.29073C3.85078 5.51087 4.14935 5.63455 4.46068 5.63455C4.77201 5.63455 5.07059 5.51087 5.29073 5.29073C5.51087 5.07059 5.63455 4.77201 5.63455 4.46068C5.63455 4.14935 5.51087 3.85078 5.29073 3.63063C5.07059 3.41049 4.77201 3.28682 4.46068 3.28682Z" fill="white"/>
</svg>
