<svg width="10" height="12" viewBox="0 0 10 12" fill="none" xmlns="http://www.w3.org/2000/svg">
<path opacity="0.2" d="M5.96791 3.78906V5.89021H1.76562V3.78906H5.96791Z" fill="#D69ABE"/>
<path d="M1.75095 6.22573H5.95325C6.04612 6.22573 6.1352 6.18884 6.20087 6.12316C6.26654 6.05749 6.30344 5.96842 6.30344 5.87554V3.77439C6.30344 3.68152 6.26654 3.59244 6.20087 3.52677C6.1352 3.4611 6.04612 3.4242 5.95325 3.4242H1.75095C1.65808 3.4242 1.56901 3.4611 1.50333 3.52677C1.43766 3.59244 1.40076 3.68152 1.40076 3.77439V5.87554C1.40076 5.96842 1.43766 6.05749 1.50333 6.12316C1.56901 6.18884 1.65808 6.22573 1.75095 6.22573ZM2.10115 4.12458H5.60306V5.52535H2.10115V4.12458ZM7.00382 2.02344H0.700382C0.514629 2.02344 0.336484 2.09723 0.205137 2.22857C0.07379 2.35992 0 2.53807 0 2.72382V10.428C0 10.6138 0.07379 10.7919 0.205137 10.9233C0.336484 11.0546 0.514629 11.1284 0.700382 11.1284H7.00382C7.18957 11.1284 7.36772 11.0546 7.49906 10.9233C7.63041 10.7919 7.7042 10.6138 7.7042 10.428V2.72382C7.7042 2.53807 7.63041 2.35992 7.49906 2.22857C7.36772 2.09723 7.18957 2.02344 7.00382 2.02344ZM7.00382 10.428H0.700382V2.72382H7.00382V10.428ZM2.62643 7.4514C2.62643 7.55529 2.59563 7.65685 2.53791 7.74323C2.48019 7.82962 2.39815 7.89694 2.30216 7.9367C2.20618 7.97646 2.10056 7.98686 1.99867 7.96659C1.89677 7.94633 1.80317 7.8963 1.72971 7.82283C1.65625 7.74937 1.60622 7.65577 1.58595 7.55388C1.56568 7.45198 1.57609 7.34637 1.61584 7.25038C1.6556 7.1544 1.72293 7.07236 1.80931 7.01464C1.8957 6.95692 1.99725 6.92611 2.10115 6.92611C2.24046 6.92611 2.37407 6.98146 2.47258 7.07997C2.57109 7.17848 2.62643 7.31209 2.62643 7.4514ZM4.37739 7.4514C4.37739 7.55529 4.34658 7.65685 4.28886 7.74323C4.23114 7.82962 4.1491 7.89694 4.05312 7.9367C3.95714 7.97646 3.85152 7.98686 3.74962 7.96659C3.64773 7.94633 3.55413 7.8963 3.48067 7.82283C3.4072 7.74937 3.35718 7.65577 3.33691 7.55388C3.31664 7.45198 3.32704 7.34637 3.3668 7.25038C3.40656 7.1544 3.47388 7.07236 3.56027 7.01464C3.64665 6.95692 3.74821 6.92611 3.8521 6.92611C3.99142 6.92611 4.12502 6.98146 4.22353 7.07997C4.32204 7.17848 4.37739 7.31209 4.37739 7.4514ZM6.12834 7.4514C6.12834 7.55529 6.09753 7.65685 6.03982 7.74323C5.9821 7.82962 5.90006 7.89694 5.80407 7.9367C5.70809 7.97646 5.60247 7.98686 5.50058 7.96659C5.39868 7.94633 5.30509 7.8963 5.23162 7.82283C5.15816 7.74937 5.10813 7.65577 5.08786 7.55388C5.06759 7.45198 5.078 7.34637 5.11775 7.25038C5.15751 7.1544 5.22484 7.07236 5.31122 7.01464C5.39761 6.95692 5.49916 6.92611 5.60306 6.92611C5.74237 6.92611 5.87598 6.98146 5.97449 7.07997C6.073 7.17848 6.12834 7.31209 6.12834 7.4514ZM2.62643 9.20236C2.62643 9.30625 2.59563 9.40781 2.53791 9.49419C2.48019 9.58057 2.39815 9.6479 2.30216 9.68766C2.20618 9.72742 2.10056 9.73782 1.99867 9.71755C1.89677 9.69728 1.80317 9.64725 1.72971 9.57379C1.65625 9.50033 1.60622 9.40673 1.58595 9.30483C1.56568 9.20294 1.57609 9.09732 1.61584 9.00134C1.6556 8.90535 1.72293 8.82332 1.80931 8.7656C1.8957 8.70788 1.99725 8.67707 2.10115 8.67707C2.24046 8.67707 2.37407 8.73241 2.47258 8.83092C2.57109 8.92943 2.62643 9.06304 2.62643 9.20236ZM4.37739 9.20236C4.37739 9.30625 4.34658 9.40781 4.28886 9.49419C4.23114 9.58057 4.1491 9.6479 4.05312 9.68766C3.95714 9.72742 3.85152 9.73782 3.74962 9.71755C3.64773 9.69728 3.55413 9.64725 3.48067 9.57379C3.4072 9.50033 3.35718 9.40673 3.33691 9.30483C3.31664 9.20294 3.32704 9.09732 3.3668 9.00134C3.40656 8.90535 3.47388 8.82332 3.56027 8.7656C3.64665 8.70788 3.74821 8.67707 3.8521 8.67707C3.99142 8.67707 4.12502 8.73241 4.22353 8.83092C4.32204 8.92943 4.37739 9.06304 4.37739 9.20236ZM6.12834 9.20236C6.12834 9.30625 6.09753 9.40781 6.03982 9.49419C5.9821 9.58057 5.90006 9.6479 5.80407 9.68766C5.70809 9.72742 5.60247 9.73782 5.50058 9.71755C5.39868 9.69728 5.30509 9.64725 5.23162 9.57379C5.15816 9.50033 5.10813 9.40673 5.08786 9.30483C5.06759 9.20294 5.078 9.09732 5.11775 9.00134C5.15751 8.90535 5.22484 8.82332 5.31122 8.7656C5.39761 8.70788 5.49916 8.67707 5.60306 8.67707C5.74237 8.67707 5.87598 8.73241 5.97449 8.83092C6.073 8.92943 6.12834 9.06304 6.12834 9.20236Z" fill="white"/>
<path d="M9.50538 2.25269C9.50538 3.22067 8.72068 4.00538 7.75269 4.00538C6.78471 4.00538 6 3.22067 6 2.25269C6 1.28471 6.78471 0.5 7.75269 0.5C8.72068 0.5 9.50538 1.28471 9.50538 2.25269Z" fill="#B96C9A" stroke="white"/>
<path d="M7.3794 1.52344H8.51712L8.40335 1.75098H8.03245C8.08706 1.81697 8.12802 1.89434 8.15191 1.97853H8.51712L8.40335 2.20607H8.1758C8.16166 2.3479 8.10004 2.4808 8.00092 2.58323C7.9018 2.68565 7.77099 2.7516 7.6297 2.77038V2.77493H7.55006L8.23269 3.57134H7.94826L7.26562 2.77493V2.54739H7.55006C7.75029 2.54739 7.9164 2.39948 7.94371 2.20607H7.26562L7.3794 1.97853H7.90958C7.84586 1.84428 7.70934 1.75098 7.55006 1.75098H7.26562L7.3794 1.52344Z" fill="white"/>
</svg>
