<svg width="18" height="16" viewBox="0 0 18 16" fill="none" xmlns="http://www.w3.org/2000/svg">
<path d="M13.8347 4.96512C13.8347 5.33919 13.6681 5.69794 13.3715 5.96245C13.0749 6.22696 12.6727 6.37556 12.2533 6.37556C11.8339 6.37556 11.4316 6.22696 11.1351 5.96245C10.8385 5.69794 10.6719 5.33919 10.6719 4.96512C10.6719 4.59105 10.8385 4.2323 11.1351 3.96779C11.4316 3.70329 11.8339 3.55469 12.2533 3.55469C12.6727 3.55469 13.0749 3.70329 13.3715 3.96779C13.6681 4.2323 13.8347 4.59105 13.8347 4.96512Z" fill="black"/>
<path fill-rule="evenodd" clip-rule="evenodd" d="M9.04868 0.203125H9.13882C10.9645 0.203125 12.3949 0.203125 13.5114 0.337116C14.6531 0.473928 15.5545 0.760246 16.2622 1.39071C16.9699 2.02188 17.2901 2.82583 17.4435 3.84487C17.5937 4.83993 17.5938 6.11566 17.5938 7.74401V7.80607C17.5938 9.15233 17.5938 10.2539 17.5115 11.1509C17.4293 12.0536 17.2609 12.8061 16.8829 13.4323C16.7169 13.708 16.5113 13.9556 16.2622 14.1777C15.5545 14.8089 14.6531 15.0945 13.5106 15.2313C12.3949 15.3653 10.9645 15.3653 9.13882 15.3653H9.04868C7.22296 15.3653 5.79259 15.3653 4.67612 15.2313C3.53435 15.0945 2.63296 14.8082 1.92528 14.1777C1.29826 13.6185 0.974076 12.9224 0.802494 12.0578C0.632494 11.2094 0.601657 10.1537 0.595331 8.84344C0.59375 8.50987 0.59375 8.15727 0.59375 7.78491V7.74401C0.59375 6.11566 0.59375 4.83993 0.743983 3.84416C0.897378 2.82583 1.2184 2.02188 1.92528 1.39071C2.63296 0.759541 3.53435 0.473928 4.67691 0.337116C5.79259 0.203125 7.22296 0.203125 9.04868 0.203125ZM4.83426 1.38507C3.82375 1.50637 3.21412 1.73768 2.76422 2.13895C2.31352 2.54092 2.05496 3.08394 1.91896 3.98591C1.78138 4.90269 1.7798 6.1072 1.7798 7.78421C1.7798 8.15727 1.7798 8.50776 1.78138 8.83851C1.7877 10.1601 1.82091 11.1276 1.96956 11.8731C2.11505 12.603 2.36333 13.0719 2.76422 13.4295C3.21491 13.8314 3.82375 14.062 4.83505 14.1833C5.86296 14.3061 7.21347 14.3075 9.09375 14.3075C10.974 14.3075 12.3245 14.3061 13.3524 14.1833C14.3638 14.062 14.9734 13.8307 15.4241 13.4295C15.5901 13.2814 15.7253 13.1178 15.8384 12.9309C16.1009 12.4965 16.2519 11.9154 16.3294 11.0656C16.4069 10.2158 16.4077 9.15656 16.4077 7.78421C16.4077 6.1072 16.4061 4.90269 16.2685 3.98591C16.1325 3.08394 15.8732 2.54021 15.4233 2.13824C14.9726 1.73697 14.3638 1.50637 13.3524 1.38507C12.3245 1.26236 10.974 1.26095 9.09375 1.26095C7.21347 1.26095 5.86217 1.26236 4.83426 1.38507Z" fill="black"/>
<path opacity="0.4" d="M15.8929 12.8226L13.6553 11.0264C13.2561 10.706 12.7469 10.5158 12.2109 10.487C11.6749 10.4582 11.1437 10.5924 10.7044 10.8678L10.4679 11.0159C10.1634 11.2067 9.79313 11.2957 9.42229 11.2671C9.05145 11.2384 8.70383 11.094 8.4406 10.8593L5.04851 7.83393C4.72224 7.54319 4.2843 7.37388 3.82334 7.36026C3.36238 7.34665 2.91284 7.48975 2.56572 7.76059L1.77344 8.37836L1.77502 8.83675C1.78134 10.159 1.81455 11.1266 1.9632 11.872C2.10948 12.6019 2.35697 13.0709 2.75786 13.4284C3.20855 13.8304 3.81739 14.061 4.82869 14.1823C5.8566 14.305 7.20711 14.3064 9.08739 14.3064C10.9677 14.3064 12.319 14.305 13.3469 14.1823C14.3574 14.061 14.967 13.8297 15.4169 13.4284C15.6143 13.253 15.7755 13.048 15.8929 12.8226Z" fill="#F44602"/>
</svg>
