<svg width="9" height="9" viewBox="0 0 9 9" fill="none" xmlns="http://www.w3.org/2000/svg">
<path d="M1.99438 2.8125H1.57438C1.35159 2.8125 1.13794 2.90101 0.980405 3.05857C0.822875 3.21613 0.734375 3.42982 0.734375 3.65263V7.43324C0.734375 7.65605 0.822875 7.86975 0.980405 8.0273C1.13794 8.18486 1.35159 8.27337 1.57438 8.27337H5.35438C5.57716 8.27337 5.79081 8.18486 5.94834 8.0273C6.10588 7.86975 6.19438 7.65605 6.19438 7.43324V7.01317" stroke="#1B1B1B" stroke-width="0.840067" stroke-linecap="round" stroke-linejoin="round"/>
<path d="M5.77594 1.97299L7.03594 3.23319M7.61764 2.6388C7.78305 2.47336 7.87598 2.24897 7.87598 2.015C7.87598 1.78103 7.78305 1.55664 7.61764 1.3912C7.45222 1.22576 7.22787 1.13281 6.99394 1.13281C6.76 1.13281 6.53565 1.22576 6.37024 1.3912L2.83594 4.91346V6.17366H4.09594L7.61764 2.6388Z" stroke="#1B1B1B" stroke-width="0.840067" stroke-linecap="round" stroke-linejoin="round"/>
</svg>
